<svg xmlns="http://www.w3.org/2000/svg" viewBox="0 0 1024 1024">
  <defs>
    <linearGradient id="tw" x1="50%" y1="0%" x2="50%" y2="100%">
      <stop offset="0%" stop-color="#0500FF"/>
      <stop offset="100%" stop-color="#0038FF"/>
    </linearGradient>
  </defs>
  <rect width="1024" height="1024" rx="220" fill="url(#tw)"/>
  <path d="M512 195.6c-3.3 0-6.5.7-9.5 2-89.3 39-166.7 53.6-230 53.6-22.1 0-42-.7-59.5-2.7-6.6-.7-12.9 1.3-17.7 5.7-4.7 4.3-7.3 10.4-7.3 16.8v154.2c0 159.4 89.2 304.7 232.7 379.5l58 30.3c10 5.2 21.8 5.2 31.8 0l58-30.3c143.5-74.8 232.7-220.1 232.7-379.5V271c0-6.4-2.7-12.5-7.3-16.8-4.8-4.3-11.1-6.4-17.7-5.7-17.5 2-37.4 2.7-59.5 2.7-63.3 0-140.7-14.6-230-53.6-3-1.3-6.2-2-9.5-2h1.8zm0 87.4c76 33.5 147.4 49.8 208.5 52.7v89.5c0 129-72.6 247.8-189.5 308.8L512 743.7l-19-9.7c-116.9-61-189.5-179.8-189.5-308.8v-89.5c61.1-2.9 132.5-19.2 208.5-52.7z" fill="white"/>
</svg>
